<svg xmlns="http://www.w3.org/2000/svg" width="25" height="25" viewBox="0 0 25 25" fill="none">
<path d="M4.5 3.5H20.5C20.7652 3.5 21.0196 3.60536 21.2071 3.79289C21.3946 3.98043 21.5 4.23478 21.5 4.5V20.5C21.5 20.7652 21.3946 21.0196 21.2071 21.2071C21.0196 21.3946 20.7652 21.5 20.5 21.5H4.5C4.23478 21.5 3.98043 21.3946 3.79289 21.2071C3.60536 21.0196 3.5 20.7652 3.5 20.5V4.5C3.5 4.23478 3.60536 3.98043 3.79289 3.79289C3.98043 3.60536 4.23478 3.5 4.5 3.5ZM5.5 5.5V19.5H19.5V5.5H5.5ZM11.5 11.5V7.5H13.5V11.5H17.5V13.5H13.5V17.5H11.5V13.5H7.5V11.5H11.5Z" fill="#2F80ED"/>
</svg>