<svg width="24" height="25" viewBox="0 0 24 25" fill="none" xmlns="http://www.w3.org/2000/svg">
<g id="Group">
<path id="Vector" d="M4 3.96094H20C20.2652 3.96094 20.5196 4.06629 20.7071 4.25383C20.8946 4.44137 21 4.69572 21 4.96094V20.9609C21 21.2262 20.8946 21.4805 20.7071 21.668C20.5196 21.8556 20.2652 21.9609 20 21.9609H4C3.73478 21.9609 3.48043 21.8556 3.29289 21.668C3.10536 21.4805 3 21.2262 3 20.9609V4.96094C3 4.69572 3.10536 4.44137 3.29289 4.25383C3.48043 4.06629 3.73478 3.96094 4 3.96094ZM5 5.96094V19.9609H19V5.96094H5ZM11 11.9609V7.96094H13V11.9609H17V13.9609H13V17.9609H11V13.9609H7V11.9609H11Z" fill="#2F80ED"/>
</g>
</svg>
