<svg width="142" height="141" viewBox="0 0 142 141" fill="none" xmlns="http://www.w3.org/2000/svg">
<path d="M8.33333 0H133.667C135.744 0 137.737 0.825295 139.206 2.29433C140.675 3.76336 141.5 5.7558 141.5 7.83333V133.167C141.5 135.244 140.675 137.237 139.206 138.706C137.737 140.175 135.744 141 133.667 141H8.33333C6.2558 141 4.26336 140.175 2.79433 138.706C1.32529 137.237 0.5 135.244 0.5 133.167V7.83333C0.5 5.7558 1.32529 3.76336 2.79433 2.29433C4.26336 0.825295 6.2558 0 8.33333 0ZM11 9.5V130.5H132V9.5H11ZM63.1667 62.6667V31.3333H78.8333V62.6667H110.167V78.3333H78.8333V109.667H63.1667V78.3333H31.8333V62.6667H63.1667Z" fill="#C7D2E9"/>
</svg>
