<svg width="21" height="19" viewBox="0 0 21 19" fill="none" xmlns="http://www.w3.org/2000/svg">
<path d="M14.375 5.5V2.5H6.375V5.5H4.375V0.5H16.375V5.5H14.375ZM16.375 10C16.6583 10 16.8958 9.90417 17.0875 9.7125C17.2792 9.52083 17.375 9.28333 17.375 9C17.375 8.71667 17.2792 8.47917 17.0875 8.2875C16.8958 8.09583 16.6583 8 16.375 8C16.0917 8 15.8542 8.09583 15.6625 8.2875C15.4708 8.47917 15.375 8.71667 15.375 9C15.375 9.28333 15.4708 9.52083 15.6625 9.7125C15.8542 9.90417 16.0917 10 16.375 10ZM14.375 16.5V12.5H6.375V16.5H14.375ZM16.375 18.5H4.375V14.5H0.375V8.5C0.375 7.65 0.666667 6.9375 1.25 6.3625C1.83333 5.7875 2.54167 5.5 3.375 5.5H17.375C18.225 5.5 18.9375 5.7875 19.5125 6.3625C20.0875 6.9375 20.375 7.65 20.375 8.5V14.5H16.375V18.5ZM18.375 12.5V8.5C18.375 8.21667 18.2792 7.97917 18.0875 7.7875C17.8958 7.59583 17.6583 7.5 17.375 7.5H3.375C3.09167 7.5 2.85417 7.59583 2.6625 7.7875C2.47083 7.97917 2.375 8.21667 2.375 8.5V12.5H4.375V10.5H16.375V12.5H18.375Z" fill="#1B2C45"/>
</svg>
