<svg xmlns="http://www.w3.org/2000/svg" width="16" height="17" viewBox="0 0 16 17" fill="none">
<path d="M12.0203 11.5779L14.8757 14.4326L13.9323 15.3759L11.0777 12.5206C10.0155 13.3721 8.69434 13.8352 7.33301 13.8333C4.02101 13.8333 1.33301 11.1453 1.33301 7.83325C1.33301 4.52125 4.02101 1.83325 7.33301 1.83325C10.645 1.83325 13.333 4.52125 13.333 7.83325C13.3349 9.19459 12.8718 10.5157 12.0203 11.5779ZM10.683 11.0833C11.5291 10.2132 12.0016 9.04687 11.9997 7.83325C11.9997 5.25459 9.91101 3.16659 7.33301 3.16659C4.75434 3.16659 2.66634 5.25459 2.66634 7.83325C2.66634 10.4113 4.75434 12.4999 7.33301 12.4999C8.54663 12.5018 9.71293 12.0293 10.583 11.1833L10.683 11.0833Z" fill="#828282"/>
</svg>