<svg width="80" height="81" viewBox="0 0 80 81" fill="none" xmlns="http://www.w3.org/2000/svg">
<path d="M13.3333 43.8333C17 43.8333 20 40.8333 20 37.1667C20 33.5 17 30.5 13.3333 30.5C9.66667 30.5 6.66667 33.5 6.66667 37.1667C6.66667 40.8333 9.66667 43.8333 13.3333 43.8333ZM17.1 47.5C15.8667 47.3 14.6333 47.1667 13.3333 47.1667C10.0333 47.1667 6.9 47.8667 4.06667 49.1C1.6 50.1667 0 52.5667 0 55.2667V60.5H15V55.1333C15 52.3667 15.7667 49.7667 17.1 47.5ZM66.6667 43.8333C70.3333 43.8333 73.3333 40.8333 73.3333 37.1667C73.3333 33.5 70.3333 30.5 66.6667 30.5C63 30.5 60 33.5 60 37.1667C60 40.8333 63 43.8333 66.6667 43.8333ZM80 55.2667C80 52.5667 78.4 50.1667 75.9333 49.1C73.1 47.8667 69.9667 47.1667 66.6667 47.1667C65.3667 47.1667 64.1333 47.3 62.9 47.5C64.2333 49.7667 65 52.3667 65 55.1333V60.5H80V55.2667ZM54.1333 46C50.2333 44.2667 45.4333 43 40 43C34.5667 43 29.7667 44.3 25.8667 46C22.2667 47.6 20 51.2 20 55.1333V60.5H60V55.1333C60 51.2 57.7333 47.6 54.1333 46ZM26.9 53.8333C27.2 53.0667 27.3333 52.5333 29.9333 51.5333C33.1667 50.2667 36.5667 49.6667 40 49.6667C43.4333 49.6667 46.8333 50.2667 50.0667 51.5333C52.6333 52.5333 52.7667 53.0667 53.1 53.8333H26.9ZM40 27.1667C41.8333 27.1667 43.3333 28.6667 43.3333 30.5C43.3333 32.3333 41.8333 33.8333 40 33.8333C38.1667 33.8333 36.6667 32.3333 36.6667 30.5C36.6667 28.6667 38.1667 27.1667 40 27.1667ZM40 20.5C34.4667 20.5 30 24.9667 30 30.5C30 36.0333 34.4667 40.5 40 40.5C45.5333 40.5 50 36.0333 50 30.5C50 24.9667 45.5333 20.5 40 20.5Z" fill="#46555A"/>
</svg>
