<svg width="80" height="80" viewBox="0 0 80 80" fill="none" xmlns="http://www.w3.org/2000/svg">
<path d="M40.0002 19.9999C43.6668 19.9999 46.6668 22.9999 46.6668 26.6666C46.6668 30.3333 43.6668 33.3333 40.0002 33.3333C36.3335 33.3333 33.3335 30.3333 33.3335 26.6666C33.3335 22.9999 36.3335 19.9999 40.0002 19.9999ZM40.0002 53.3333C49.0002 53.3333 59.3335 57.6333 60.0002 59.9999H20.0002C20.7668 57.5999 31.0335 53.3333 40.0002 53.3333ZM40.0002 13.3333C32.6335 13.3333 26.6668 19.2999 26.6668 26.6666C26.6668 34.0333 32.6335 39.9999 40.0002 39.9999C47.3668 39.9999 53.3335 34.0333 53.3335 26.6666C53.3335 19.2999 47.3668 13.3333 40.0002 13.3333ZM40.0002 46.6666C31.1002 46.6666 13.3335 51.1333 13.3335 59.9999V66.6666H66.6668V59.9999C66.6668 51.1333 48.9002 46.6666 40.0002 46.6666Z" fill="#46555A"/>
</svg>
