<svg width="19" height="19" viewBox="0 0 19 19" fill="none" xmlns="http://www.w3.org/2000/svg">
<path d="M15.25 16.5H16.25V4.328L14.422 2.5H13.25V6.5H4.25V2.5H2.25V16.5H3.25V9.5H15.25V16.5ZM1.25 0.5H15.25L17.957 3.207C18.1446 3.39449 18.2499 3.64881 18.25 3.914V17.5C18.25 17.7652 18.1446 18.0196 17.9571 18.2071C17.7696 18.3946 17.5152 18.5 17.25 18.5H1.25C0.984784 18.5 0.73043 18.3946 0.542893 18.2071C0.355357 18.0196 0.25 17.7652 0.25 17.5V1.5C0.25 1.23478 0.355357 0.98043 0.542893 0.792893C0.73043 0.605357 0.984784 0.5 1.25 0.5ZM5.25 11.5V16.5H13.25V11.5H5.25Z" fill="#1B2C45"/>
</svg>
