<svg width="27" height="24" viewBox="0 0 27 24" fill="none" xmlns="http://www.w3.org/2000/svg">
<path d="M3.8913 3.42857V0H6.15217V3.42857H9.54348V5.71429H6.15217V9.14286H3.8913V5.71429H0.5V3.42857H3.8913ZM7.28261 10.2857V6.85714H10.6739V3.42857H18.587L20.6557 5.71429H24.2391C25.4826 5.71429 26.5 6.74286 26.5 8V21.7143C26.5 22.9714 25.4826 24 24.2391 24H6.15217C4.9087 24 3.8913 22.9714 3.8913 21.7143V10.2857H7.28261ZM15.1957 20.5714C18.3157 20.5714 20.8478 18.0114 20.8478 14.8571C20.8478 11.7029 18.3157 9.14286 15.1957 9.14286C12.0757 9.14286 9.54348 11.7029 9.54348 14.8571C9.54348 18.0114 12.0757 20.5714 15.1957 20.5714ZM11.5783 14.8571C11.5783 16.88 13.1948 18.5143 15.1957 18.5143C17.1965 18.5143 18.813 16.88 18.813 14.8571C18.813 12.8343 17.1965 11.2 15.1957 11.2C13.1948 11.2 11.5783 12.8343 11.5783 14.8571Z" fill="#1B2C45"/>
</svg>
